<mxfile host="app.diagrams.net" modified="2022-12-12T18:47:17.831Z" agent="5.0 (Windows NT 10.0; Win64; x64) AppleWebKit/537.36 (KHTML, like Gecko) Chrome/108.0.0.0 Safari/537.36" etag="6PpFbmnCPXbjxLOK51eP" version="20.5.3" type="github">
  <diagram id="R2lEEEUBdFMjLlhIrx00" name="Page-1">
    <mxGraphModel dx="1247" dy="677" grid="1" gridSize="10" guides="1" tooltips="1" connect="1" arrows="1" fold="1" page="1" pageScale="1" pageWidth="1654" pageHeight="1169" math="0" shadow="0" extFonts="Permanent Marker^https://fonts.googleapis.com/css?family=Permanent+Marker">
      <root>
        <mxCell id="0" />
        <mxCell id="1" parent="0" />
        <mxCell id="KG3JMhEqKzMqYPLvNgxc-1" value="Customer" style="rounded=0;whiteSpace=wrap;html=1;" vertex="1" parent="1">
          <mxGeometry x="70" y="160" width="120" height="40" as="geometry" />
        </mxCell>
        <mxCell id="KG3JMhEqKzMqYPLvNgxc-2" value="Account" style="rounded=0;whiteSpace=wrap;html=1;" vertex="1" parent="1">
          <mxGeometry x="540" y="160" width="120" height="40" as="geometry" />
        </mxCell>
        <mxCell id="KG3JMhEqKzMqYPLvNgxc-3" value="Payment" style="rounded=0;whiteSpace=wrap;html=1;" vertex="1" parent="1">
          <mxGeometry x="930" y="160" width="120" height="40" as="geometry" />
        </mxCell>
        <mxCell id="KG3JMhEqKzMqYPLvNgxc-130" style="edgeStyle=none;rounded=0;orthogonalLoop=1;jettySize=auto;html=1;exitX=0.75;exitY=1;exitDx=0;exitDy=0;entryX=0.5;entryY=0;entryDx=0;entryDy=0;endArrow=none;endFill=0;" edge="1" parent="1" source="KG3JMhEqKzMqYPLvNgxc-4" target="KG3JMhEqKzMqYPLvNgxc-129">
          <mxGeometry relative="1" as="geometry" />
        </mxCell>
        <mxCell id="KG3JMhEqKzMqYPLvNgxc-4" value="Card" style="rounded=0;whiteSpace=wrap;html=1;" vertex="1" parent="1">
          <mxGeometry x="540" y="390" width="120" height="40" as="geometry" />
        </mxCell>
        <mxCell id="KG3JMhEqKzMqYPLvNgxc-5" value="Loan" style="rounded=0;whiteSpace=wrap;html=1;" vertex="1" parent="1">
          <mxGeometry x="200" y="450" width="120" height="40" as="geometry" />
        </mxCell>
        <mxCell id="KG3JMhEqKzMqYPLvNgxc-6" value="Collateral" style="rounded=0;whiteSpace=wrap;html=1;" vertex="1" parent="1">
          <mxGeometry x="200" y="640" width="120" height="40" as="geometry" />
        </mxCell>
        <mxCell id="KG3JMhEqKzMqYPLvNgxc-27" value="Managed by" style="rhombus;whiteSpace=wrap;html=1;rotation=0;" vertex="1" parent="1">
          <mxGeometry x="540" y="260" width="120" height="70" as="geometry" />
        </mxCell>
        <mxCell id="KG3JMhEqKzMqYPLvNgxc-7" value="Owns" style="rhombus;whiteSpace=wrap;html=1;" vertex="1" parent="1">
          <mxGeometry x="300" y="145" width="120" height="70" as="geometry" />
        </mxCell>
        <mxCell id="KG3JMhEqKzMqYPLvNgxc-23" value="" style="endArrow=none;html=1;rounded=0;exitX=1;exitY=0.5;exitDx=0;exitDy=0;entryX=0;entryY=0.5;entryDx=0;entryDy=0;startArrow=none;" edge="1" parent="1" source="KG3JMhEqKzMqYPLvNgxc-7" target="KG3JMhEqKzMqYPLvNgxc-2">
          <mxGeometry width="50" height="50" relative="1" as="geometry">
            <mxPoint x="420" y="180" as="sourcePoint" />
            <mxPoint x="520" y="180" as="targetPoint" />
          </mxGeometry>
        </mxCell>
        <mxCell id="KG3JMhEqKzMqYPLvNgxc-24" value="M" style="text;html=1;align=center;verticalAlign=middle;resizable=0;points=[];autosize=1;strokeColor=none;fillColor=none;" vertex="1" parent="1">
          <mxGeometry x="420" y="158" width="30" height="30" as="geometry" />
        </mxCell>
        <mxCell id="KG3JMhEqKzMqYPLvNgxc-16" value="" style="endArrow=none;html=1;rounded=0;exitX=1;exitY=0.5;exitDx=0;exitDy=0;entryX=0;entryY=0.5;entryDx=0;entryDy=0;startArrow=none;" edge="1" parent="1" source="KG3JMhEqKzMqYPLvNgxc-1" target="KG3JMhEqKzMqYPLvNgxc-7">
          <mxGeometry width="50" height="50" relative="1" as="geometry">
            <mxPoint x="209.99999999997453" y="180" as="sourcePoint" />
            <mxPoint x="180" y="112" as="targetPoint" />
          </mxGeometry>
        </mxCell>
        <mxCell id="KG3JMhEqKzMqYPLvNgxc-49" value="" style="endArrow=none;html=1;rounded=0;entryX=0.5;entryY=1;entryDx=0;entryDy=0;exitX=0.5;exitY=0;exitDx=0;exitDy=0;startArrow=none;" edge="1" parent="1" source="KG3JMhEqKzMqYPLvNgxc-42" target="KG3JMhEqKzMqYPLvNgxc-2">
          <mxGeometry width="50" height="50" relative="1" as="geometry">
            <mxPoint x="400" y="260" as="sourcePoint" />
            <mxPoint x="450" y="210" as="targetPoint" />
            <Array as="points" />
          </mxGeometry>
        </mxCell>
        <mxCell id="KG3JMhEqKzMqYPLvNgxc-42" value="" style="ellipse;whiteSpace=wrap;html=1;aspect=fixed;" vertex="1" parent="1">
          <mxGeometry x="595" y="205" width="10" height="10" as="geometry" />
        </mxCell>
        <mxCell id="KG3JMhEqKzMqYPLvNgxc-50" value="" style="endArrow=none;html=1;rounded=0;entryX=0.5;entryY=1;entryDx=0;entryDy=0;exitX=0.5;exitY=0;exitDx=0;exitDy=0;" edge="1" parent="1" source="KG3JMhEqKzMqYPLvNgxc-27" target="KG3JMhEqKzMqYPLvNgxc-42">
          <mxGeometry width="50" height="50" relative="1" as="geometry">
            <mxPoint x="600" y="260" as="sourcePoint" />
            <mxPoint x="600" y="200" as="targetPoint" />
            <Array as="points">
              <mxPoint x="600" y="230" />
            </Array>
          </mxGeometry>
        </mxCell>
        <mxCell id="KG3JMhEqKzMqYPLvNgxc-51" value="" style="endArrow=none;html=1;rounded=0;exitX=0.5;exitY=0;exitDx=0;exitDy=0;entryX=0.5;entryY=1;entryDx=0;entryDy=0;" edge="1" parent="1" source="KG3JMhEqKzMqYPLvNgxc-4" target="KG3JMhEqKzMqYPLvNgxc-27">
          <mxGeometry width="50" height="50" relative="1" as="geometry">
            <mxPoint x="550" y="380" as="sourcePoint" />
            <mxPoint x="600" y="330" as="targetPoint" />
          </mxGeometry>
        </mxCell>
        <mxCell id="KG3JMhEqKzMqYPLvNgxc-52" value="1" style="text;html=1;strokeColor=none;fillColor=none;align=center;verticalAlign=middle;whiteSpace=wrap;rounded=0;" vertex="1" parent="1">
          <mxGeometry x="585" y="240" width="60" height="30" as="geometry" />
        </mxCell>
        <mxCell id="KG3JMhEqKzMqYPLvNgxc-53" value="1" style="text;html=1;strokeColor=none;fillColor=none;align=center;verticalAlign=middle;whiteSpace=wrap;rounded=0;" vertex="1" parent="1">
          <mxGeometry x="585" y="330" width="60" height="30" as="geometry" />
        </mxCell>
        <mxCell id="KG3JMhEqKzMqYPLvNgxc-56" style="rounded=0;orthogonalLoop=1;jettySize=auto;html=1;entryX=0;entryY=0.5;entryDx=0;entryDy=0;endArrow=none;endFill=0;exitX=1;exitY=0.5;exitDx=0;exitDy=0;" edge="1" parent="1" source="KG3JMhEqKzMqYPLvNgxc-54" target="KG3JMhEqKzMqYPLvNgxc-3">
          <mxGeometry relative="1" as="geometry">
            <mxPoint x="851.6000000000001" y="181.67000000000002" as="sourcePoint" />
          </mxGeometry>
        </mxCell>
        <mxCell id="KG3JMhEqKzMqYPLvNgxc-54" value="Credited" style="rhombus;whiteSpace=wrap;html=1;" vertex="1" parent="1">
          <mxGeometry x="730" y="115" width="120" height="55" as="geometry" />
        </mxCell>
        <mxCell id="KG3JMhEqKzMqYPLvNgxc-62" value="" style="endArrow=none;html=1;rounded=0;entryX=0;entryY=0.5;entryDx=0;entryDy=0;exitX=1;exitY=0;exitDx=0;exitDy=0;startArrow=none;" edge="1" parent="1" source="KG3JMhEqKzMqYPLvNgxc-74" target="KG3JMhEqKzMqYPLvNgxc-54">
          <mxGeometry width="50" height="50" relative="1" as="geometry">
            <mxPoint x="680.0000000000286" y="180" as="sourcePoint" />
            <mxPoint x="710" y="188" as="targetPoint" />
          </mxGeometry>
        </mxCell>
        <mxCell id="KG3JMhEqKzMqYPLvNgxc-65" value="1" style="text;html=1;strokeColor=none;fillColor=none;align=center;verticalAlign=middle;whiteSpace=wrap;rounded=0;" vertex="1" parent="1">
          <mxGeometry x="690" y="128" width="60" height="30" as="geometry" />
        </mxCell>
        <mxCell id="KG3JMhEqKzMqYPLvNgxc-67" value="N" style="text;html=1;strokeColor=none;fillColor=none;align=center;verticalAlign=middle;whiteSpace=wrap;rounded=0;" vertex="1" parent="1">
          <mxGeometry x="830" y="120" width="60" height="30" as="geometry" />
        </mxCell>
        <mxCell id="KG3JMhEqKzMqYPLvNgxc-68" style="rounded=0;orthogonalLoop=1;jettySize=auto;html=1;endArrow=none;endFill=0;exitX=1;exitY=0.5;exitDx=0;exitDy=0;" edge="1" parent="1" source="KG3JMhEqKzMqYPLvNgxc-69">
          <mxGeometry relative="1" as="geometry">
            <mxPoint x="851.6000000000001" y="256.67" as="sourcePoint" />
            <mxPoint x="930" y="180" as="targetPoint" />
          </mxGeometry>
        </mxCell>
        <mxCell id="KG3JMhEqKzMqYPLvNgxc-69" value="Debited" style="rhombus;whiteSpace=wrap;html=1;" vertex="1" parent="1">
          <mxGeometry x="730" y="200" width="120" height="60" as="geometry" />
        </mxCell>
        <mxCell id="KG3JMhEqKzMqYPLvNgxc-70" value="" style="endArrow=none;html=1;rounded=0;entryX=0;entryY=0.5;entryDx=0;entryDy=0;exitX=1;exitY=1;exitDx=0;exitDy=0;startArrow=none;" edge="1" parent="1" target="KG3JMhEqKzMqYPLvNgxc-69" source="KG3JMhEqKzMqYPLvNgxc-73">
          <mxGeometry width="50" height="50" relative="1" as="geometry">
            <mxPoint x="680.0000000000286" y="255" as="sourcePoint" />
            <mxPoint x="710" y="263" as="targetPoint" />
          </mxGeometry>
        </mxCell>
        <mxCell id="KG3JMhEqKzMqYPLvNgxc-71" value="1" style="text;html=1;strokeColor=none;fillColor=none;align=center;verticalAlign=middle;whiteSpace=wrap;rounded=0;" vertex="1" parent="1">
          <mxGeometry x="690" y="215" width="60" height="30" as="geometry" />
        </mxCell>
        <mxCell id="KG3JMhEqKzMqYPLvNgxc-72" value="N" style="text;html=1;strokeColor=none;fillColor=none;align=center;verticalAlign=middle;whiteSpace=wrap;rounded=0;" vertex="1" parent="1">
          <mxGeometry x="830" y="220" width="60" height="30" as="geometry" />
        </mxCell>
        <mxCell id="KG3JMhEqKzMqYPLvNgxc-74" value="" style="ellipse;whiteSpace=wrap;html=1;aspect=fixed;" vertex="1" parent="1">
          <mxGeometry x="670" y="168" width="10" height="10" as="geometry" />
        </mxCell>
        <mxCell id="KG3JMhEqKzMqYPLvNgxc-75" value="" style="endArrow=none;html=1;rounded=0;entryX=0;entryY=0.5;entryDx=0;entryDy=0;exitX=1;exitY=0.5;exitDx=0;exitDy=0;startArrow=none;" edge="1" parent="1" source="KG3JMhEqKzMqYPLvNgxc-2" target="KG3JMhEqKzMqYPLvNgxc-74">
          <mxGeometry width="50" height="50" relative="1" as="geometry">
            <mxPoint x="660" y="180" as="sourcePoint" />
            <mxPoint x="730" y="150" as="targetPoint" />
          </mxGeometry>
        </mxCell>
        <mxCell id="KG3JMhEqKzMqYPLvNgxc-73" value="" style="ellipse;whiteSpace=wrap;html=1;aspect=fixed;" vertex="1" parent="1">
          <mxGeometry x="670" y="185" width="10" height="10" as="geometry" />
        </mxCell>
        <mxCell id="KG3JMhEqKzMqYPLvNgxc-76" value="" style="endArrow=none;html=1;rounded=0;entryX=0;entryY=0.5;entryDx=0;entryDy=0;exitX=1;exitY=0.5;exitDx=0;exitDy=0;startArrow=none;" edge="1" parent="1" source="KG3JMhEqKzMqYPLvNgxc-2" target="KG3JMhEqKzMqYPLvNgxc-73">
          <mxGeometry width="50" height="50" relative="1" as="geometry">
            <mxPoint x="660" y="180" as="sourcePoint" />
            <mxPoint x="730" y="225" as="targetPoint" />
          </mxGeometry>
        </mxCell>
        <mxCell id="KG3JMhEqKzMqYPLvNgxc-77" value="Serves" style="rhombus;whiteSpace=wrap;html=1;" vertex="1" parent="1">
          <mxGeometry x="292.5" y="245" width="115" height="70" as="geometry" />
        </mxCell>
        <mxCell id="KG3JMhEqKzMqYPLvNgxc-78" value="" style="endArrow=none;html=1;rounded=0;entryX=0;entryY=0.5;entryDx=0;entryDy=0;exitX=1;exitY=0.5;exitDx=0;exitDy=0;startArrow=none;" edge="1" parent="1" source="KG3JMhEqKzMqYPLvNgxc-80" target="KG3JMhEqKzMqYPLvNgxc-2">
          <mxGeometry width="50" height="50" relative="1" as="geometry">
            <mxPoint x="470" y="320" as="sourcePoint" />
            <mxPoint x="520" y="270" as="targetPoint" />
          </mxGeometry>
        </mxCell>
        <mxCell id="KG3JMhEqKzMqYPLvNgxc-79" value="" style="endArrow=none;html=1;rounded=0;entryX=0;entryY=0.5;entryDx=0;entryDy=0;exitX=0.5;exitY=0;exitDx=0;exitDy=0;" edge="1" parent="1" source="KG3JMhEqKzMqYPLvNgxc-5" target="KG3JMhEqKzMqYPLvNgxc-77">
          <mxGeometry width="50" height="50" relative="1" as="geometry">
            <mxPoint x="470" y="320" as="sourcePoint" />
            <mxPoint x="520" y="270" as="targetPoint" />
          </mxGeometry>
        </mxCell>
        <mxCell id="KG3JMhEqKzMqYPLvNgxc-80" value="" style="ellipse;whiteSpace=wrap;html=1;aspect=fixed;" vertex="1" parent="1">
          <mxGeometry x="510" y="192" width="10" height="10" as="geometry" />
        </mxCell>
        <mxCell id="KG3JMhEqKzMqYPLvNgxc-81" value="" style="endArrow=none;html=1;rounded=0;entryX=0;entryY=0.5;entryDx=0;entryDy=0;exitX=1;exitY=0.5;exitDx=0;exitDy=0;" edge="1" parent="1" source="KG3JMhEqKzMqYPLvNgxc-77" target="KG3JMhEqKzMqYPLvNgxc-80">
          <mxGeometry width="50" height="50" relative="1" as="geometry">
            <mxPoint x="475" y="295" as="sourcePoint" />
            <mxPoint x="540" y="180" as="targetPoint" />
          </mxGeometry>
        </mxCell>
        <mxCell id="KG3JMhEqKzMqYPLvNgxc-82" value="1" style="text;html=1;strokeColor=none;fillColor=none;align=center;verticalAlign=middle;whiteSpace=wrap;rounded=0;" vertex="1" parent="1">
          <mxGeometry x="390" y="265" width="60" height="30" as="geometry" />
        </mxCell>
        <mxCell id="KG3JMhEqKzMqYPLvNgxc-83" value="1" style="text;html=1;strokeColor=none;fillColor=none;align=center;verticalAlign=middle;whiteSpace=wrap;rounded=0;" vertex="1" parent="1">
          <mxGeometry x="255" y="270" width="60" height="30" as="geometry" />
        </mxCell>
        <mxCell id="KG3JMhEqKzMqYPLvNgxc-84" value="Secured by" style="rhombus;whiteSpace=wrap;html=1;" vertex="1" parent="1">
          <mxGeometry x="200" y="530" width="120" height="70" as="geometry" />
        </mxCell>
        <mxCell id="KG3JMhEqKzMqYPLvNgxc-86" value="" style="endArrow=none;html=1;rounded=0;exitX=0.5;exitY=1;exitDx=0;exitDy=0;entryX=0.5;entryY=0;entryDx=0;entryDy=0;" edge="1" parent="1" source="KG3JMhEqKzMqYPLvNgxc-84" target="KG3JMhEqKzMqYPLvNgxc-6">
          <mxGeometry width="50" height="50" relative="1" as="geometry">
            <mxPoint x="400" y="550" as="sourcePoint" />
            <mxPoint x="450" y="500" as="targetPoint" />
          </mxGeometry>
        </mxCell>
        <mxCell id="KG3JMhEqKzMqYPLvNgxc-88" value="" style="endArrow=none;html=1;rounded=0;entryX=0.5;entryY=1;entryDx=0;entryDy=0;startArrow=none;" edge="1" parent="1" source="KG3JMhEqKzMqYPLvNgxc-91" target="KG3JMhEqKzMqYPLvNgxc-5">
          <mxGeometry width="50" height="50" relative="1" as="geometry">
            <mxPoint x="260" y="529.9999999999999" as="sourcePoint" />
            <mxPoint x="260" y="505" as="targetPoint" />
          </mxGeometry>
        </mxCell>
        <mxCell id="KG3JMhEqKzMqYPLvNgxc-89" value="M" style="text;html=1;align=center;verticalAlign=middle;resizable=0;points=[];autosize=1;strokeColor=none;fillColor=none;" vertex="1" parent="1">
          <mxGeometry x="255" y="590" width="30" height="30" as="geometry" />
        </mxCell>
        <mxCell id="KG3JMhEqKzMqYPLvNgxc-90" value="N" style="text;html=1;align=center;verticalAlign=middle;resizable=0;points=[];autosize=1;strokeColor=none;fillColor=none;" vertex="1" parent="1">
          <mxGeometry x="255" y="510" width="30" height="30" as="geometry" />
        </mxCell>
        <mxCell id="KG3JMhEqKzMqYPLvNgxc-91" value="" style="ellipse;whiteSpace=wrap;html=1;aspect=fixed;" vertex="1" parent="1">
          <mxGeometry x="255" y="495" width="10" height="10" as="geometry" />
        </mxCell>
        <mxCell id="KG3JMhEqKzMqYPLvNgxc-92" value="" style="endArrow=none;html=1;rounded=0;entryX=0.5;entryY=1;entryDx=0;entryDy=0;" edge="1" parent="1" source="KG3JMhEqKzMqYPLvNgxc-84" target="KG3JMhEqKzMqYPLvNgxc-91">
          <mxGeometry width="50" height="50" relative="1" as="geometry">
            <mxPoint x="260" y="530" as="sourcePoint" />
            <mxPoint x="260" y="490" as="targetPoint" />
          </mxGeometry>
        </mxCell>
        <mxCell id="KG3JMhEqKzMqYPLvNgxc-93" value="" style="ellipse;whiteSpace=wrap;html=1;aspect=fixed;" vertex="1" parent="1">
          <mxGeometry x="255" y="620" width="10" height="10" as="geometry" />
        </mxCell>
        <mxCell id="KG3JMhEqKzMqYPLvNgxc-95" style="edgeStyle=none;rounded=0;orthogonalLoop=1;jettySize=auto;html=1;exitX=0.5;exitY=1;exitDx=0;exitDy=0;entryX=0.25;entryY=0;entryDx=0;entryDy=0;endArrow=none;endFill=0;" edge="1" parent="1" source="KG3JMhEqKzMqYPLvNgxc-94" target="KG3JMhEqKzMqYPLvNgxc-1">
          <mxGeometry relative="1" as="geometry" />
        </mxCell>
        <mxCell id="KG3JMhEqKzMqYPLvNgxc-94" value="&lt;u&gt;CustNo&lt;/u&gt;" style="ellipse;whiteSpace=wrap;html=1;" vertex="1" parent="1">
          <mxGeometry x="40" y="80" width="60" height="25" as="geometry" />
        </mxCell>
        <mxCell id="KG3JMhEqKzMqYPLvNgxc-99" style="edgeStyle=none;rounded=0;orthogonalLoop=1;jettySize=auto;html=1;entryX=0.5;entryY=0;entryDx=0;entryDy=0;endArrow=none;endFill=0;" edge="1" parent="1" source="KG3JMhEqKzMqYPLvNgxc-97" target="KG3JMhEqKzMqYPLvNgxc-1">
          <mxGeometry relative="1" as="geometry" />
        </mxCell>
        <mxCell id="KG3JMhEqKzMqYPLvNgxc-97" value="Name" style="ellipse;whiteSpace=wrap;html=1;" vertex="1" parent="1">
          <mxGeometry x="110" y="80" width="60" height="25" as="geometry" />
        </mxCell>
        <mxCell id="KG3JMhEqKzMqYPLvNgxc-100" style="edgeStyle=none;rounded=0;orthogonalLoop=1;jettySize=auto;html=1;entryX=0.75;entryY=0;entryDx=0;entryDy=0;endArrow=none;endFill=0;" edge="1" parent="1" source="KG3JMhEqKzMqYPLvNgxc-98" target="KG3JMhEqKzMqYPLvNgxc-1">
          <mxGeometry relative="1" as="geometry" />
        </mxCell>
        <mxCell id="KG3JMhEqKzMqYPLvNgxc-98" value="Last Name" style="ellipse;whiteSpace=wrap;html=1;" vertex="1" parent="1">
          <mxGeometry x="180" y="80" width="70" height="25" as="geometry" />
        </mxCell>
        <mxCell id="KG3JMhEqKzMqYPLvNgxc-102" style="edgeStyle=none;rounded=0;orthogonalLoop=1;jettySize=auto;html=1;entryX=0.25;entryY=1;entryDx=0;entryDy=0;endArrow=none;endFill=0;" edge="1" parent="1" source="KG3JMhEqKzMqYPLvNgxc-101" target="KG3JMhEqKzMqYPLvNgxc-1">
          <mxGeometry relative="1" as="geometry" />
        </mxCell>
        <mxCell id="KG3JMhEqKzMqYPLvNgxc-101" value="Birth date" style="ellipse;whiteSpace=wrap;html=1;" vertex="1" parent="1">
          <mxGeometry x="10" y="255" width="70" height="25" as="geometry" />
        </mxCell>
        <mxCell id="KG3JMhEqKzMqYPLvNgxc-104" style="edgeStyle=none;rounded=0;orthogonalLoop=1;jettySize=auto;html=1;entryX=0.5;entryY=1;entryDx=0;entryDy=0;endArrow=none;endFill=0;" edge="1" parent="1" source="KG3JMhEqKzMqYPLvNgxc-103" target="KG3JMhEqKzMqYPLvNgxc-1">
          <mxGeometry relative="1" as="geometry" />
        </mxCell>
        <mxCell id="KG3JMhEqKzMqYPLvNgxc-108" style="edgeStyle=none;rounded=0;orthogonalLoop=1;jettySize=auto;html=1;entryX=0.5;entryY=0;entryDx=0;entryDy=0;endArrow=none;endFill=0;" edge="1" parent="1" source="KG3JMhEqKzMqYPLvNgxc-103" target="KG3JMhEqKzMqYPLvNgxc-105">
          <mxGeometry relative="1" as="geometry" />
        </mxCell>
        <mxCell id="KG3JMhEqKzMqYPLvNgxc-109" style="edgeStyle=none;rounded=0;orthogonalLoop=1;jettySize=auto;html=1;entryX=0.5;entryY=0;entryDx=0;entryDy=0;endArrow=none;endFill=0;" edge="1" parent="1" source="KG3JMhEqKzMqYPLvNgxc-103" target="KG3JMhEqKzMqYPLvNgxc-106">
          <mxGeometry relative="1" as="geometry" />
        </mxCell>
        <mxCell id="KG3JMhEqKzMqYPLvNgxc-110" style="edgeStyle=none;rounded=0;orthogonalLoop=1;jettySize=auto;html=1;entryX=0.5;entryY=0;entryDx=0;entryDy=0;endArrow=none;endFill=0;" edge="1" parent="1" source="KG3JMhEqKzMqYPLvNgxc-103" target="KG3JMhEqKzMqYPLvNgxc-107">
          <mxGeometry relative="1" as="geometry" />
        </mxCell>
        <mxCell id="KG3JMhEqKzMqYPLvNgxc-103" value="Address" style="ellipse;whiteSpace=wrap;html=1;" vertex="1" parent="1">
          <mxGeometry x="100" y="260" width="70" height="25" as="geometry" />
        </mxCell>
        <mxCell id="KG3JMhEqKzMqYPLvNgxc-105" value="Country" style="ellipse;whiteSpace=wrap;html=1;" vertex="1" parent="1">
          <mxGeometry x="45" y="300" width="50" height="30" as="geometry" />
        </mxCell>
        <mxCell id="KG3JMhEqKzMqYPLvNgxc-106" value="Address line1" style="ellipse;whiteSpace=wrap;html=1;" vertex="1" parent="1">
          <mxGeometry x="105" y="310" width="60" height="30" as="geometry" />
        </mxCell>
        <mxCell id="KG3JMhEqKzMqYPLvNgxc-107" value="Address line2" style="ellipse;whiteSpace=wrap;html=1;" vertex="1" parent="1">
          <mxGeometry x="170" y="300" width="60" height="30" as="geometry" />
        </mxCell>
        <mxCell id="KG3JMhEqKzMqYPLvNgxc-112" style="edgeStyle=none;rounded=0;orthogonalLoop=1;jettySize=auto;html=1;entryX=0.5;entryY=0;entryDx=0;entryDy=0;endArrow=none;endFill=0;" edge="1" parent="1" source="KG3JMhEqKzMqYPLvNgxc-111" target="KG3JMhEqKzMqYPLvNgxc-2">
          <mxGeometry relative="1" as="geometry" />
        </mxCell>
        <mxCell id="KG3JMhEqKzMqYPLvNgxc-111" value="Amount" style="ellipse;whiteSpace=wrap;html=1;dashed=1;" vertex="1" parent="1">
          <mxGeometry x="595" y="80" width="65" height="25" as="geometry" />
        </mxCell>
        <mxCell id="KG3JMhEqKzMqYPLvNgxc-114" style="edgeStyle=none;rounded=0;orthogonalLoop=1;jettySize=auto;html=1;entryX=0.75;entryY=0;entryDx=0;entryDy=0;endArrow=none;endFill=0;" edge="1" parent="1" source="KG3JMhEqKzMqYPLvNgxc-113" target="KG3JMhEqKzMqYPLvNgxc-3">
          <mxGeometry relative="1" as="geometry" />
        </mxCell>
        <mxCell id="KG3JMhEqKzMqYPLvNgxc-113" value="Amount" style="ellipse;whiteSpace=wrap;html=1;" vertex="1" parent="1">
          <mxGeometry x="1050" y="60" width="65" height="25" as="geometry" />
        </mxCell>
        <mxCell id="KG3JMhEqKzMqYPLvNgxc-116" style="edgeStyle=none;rounded=0;orthogonalLoop=1;jettySize=auto;html=1;entryX=0.5;entryY=0;entryDx=0;entryDy=0;endArrow=none;endFill=0;" edge="1" parent="1" source="KG3JMhEqKzMqYPLvNgxc-115" target="KG3JMhEqKzMqYPLvNgxc-3">
          <mxGeometry relative="1" as="geometry" />
        </mxCell>
        <mxCell id="KG3JMhEqKzMqYPLvNgxc-115" value="Date" style="ellipse;whiteSpace=wrap;html=1;" vertex="1" parent="1">
          <mxGeometry x="957.5" y="55" width="65" height="25" as="geometry" />
        </mxCell>
        <mxCell id="KG3JMhEqKzMqYPLvNgxc-118" style="edgeStyle=none;rounded=0;orthogonalLoop=1;jettySize=auto;html=1;entryX=0.5;entryY=0;entryDx=0;entryDy=0;endArrow=none;endFill=0;" edge="1" parent="1" source="KG3JMhEqKzMqYPLvNgxc-117" target="KG3JMhEqKzMqYPLvNgxc-2">
          <mxGeometry relative="1" as="geometry" />
        </mxCell>
        <mxCell id="KG3JMhEqKzMqYPLvNgxc-117" value="&lt;u&gt;AccNo&lt;/u&gt;" style="ellipse;whiteSpace=wrap;html=1;" vertex="1" parent="1">
          <mxGeometry x="492.5" y="85" width="65" height="25" as="geometry" />
        </mxCell>
        <mxCell id="KG3JMhEqKzMqYPLvNgxc-120" style="edgeStyle=none;rounded=0;orthogonalLoop=1;jettySize=auto;html=1;entryX=1;entryY=0;entryDx=0;entryDy=0;endArrow=none;endFill=0;" edge="1" parent="1" source="KG3JMhEqKzMqYPLvNgxc-119" target="KG3JMhEqKzMqYPLvNgxc-3">
          <mxGeometry relative="1" as="geometry" />
        </mxCell>
        <mxCell id="KG3JMhEqKzMqYPLvNgxc-119" value="Description" style="ellipse;whiteSpace=wrap;html=1;" vertex="1" parent="1">
          <mxGeometry x="1110" y="103" width="65" height="25" as="geometry" />
        </mxCell>
        <mxCell id="KG3JMhEqKzMqYPLvNgxc-124" style="edgeStyle=none;rounded=0;orthogonalLoop=1;jettySize=auto;html=1;entryX=0.366;entryY=1.011;entryDx=0;entryDy=0;entryPerimeter=0;endArrow=none;endFill=0;" edge="1" parent="1" source="KG3JMhEqKzMqYPLvNgxc-123" target="KG3JMhEqKzMqYPLvNgxc-4">
          <mxGeometry relative="1" as="geometry" />
        </mxCell>
        <mxCell id="KG3JMhEqKzMqYPLvNgxc-123" value="&lt;u&gt;CardNo&lt;/u&gt;" style="ellipse;whiteSpace=wrap;html=1;" vertex="1" parent="1">
          <mxGeometry x="497.5" y="485" width="60" height="25" as="geometry" />
        </mxCell>
        <mxCell id="KG3JMhEqKzMqYPLvNgxc-126" style="edgeStyle=none;rounded=0;orthogonalLoop=1;jettySize=auto;html=1;entryX=0.5;entryY=1;entryDx=0;entryDy=0;endArrow=none;endFill=0;" edge="1" parent="1" source="KG3JMhEqKzMqYPLvNgxc-125" target="KG3JMhEqKzMqYPLvNgxc-4">
          <mxGeometry relative="1" as="geometry" />
        </mxCell>
        <mxCell id="KG3JMhEqKzMqYPLvNgxc-125" value="CVC" style="ellipse;whiteSpace=wrap;html=1;" vertex="1" parent="1">
          <mxGeometry x="585" y="495" width="60" height="25" as="geometry" />
        </mxCell>
        <mxCell id="KG3JMhEqKzMqYPLvNgxc-18" value="1" style="text;html=1;align=center;verticalAlign=middle;resizable=0;points=[];autosize=1;strokeColor=none;fillColor=none;" vertex="1" parent="1">
          <mxGeometry x="274" y="158" width="30" height="30" as="geometry" />
        </mxCell>
        <mxCell id="KG3JMhEqKzMqYPLvNgxc-129" value="Exp date" style="ellipse;whiteSpace=wrap;html=1;" vertex="1" parent="1">
          <mxGeometry x="670" y="480" width="60" height="25" as="geometry" />
        </mxCell>
        <mxCell id="KG3JMhEqKzMqYPLvNgxc-132" style="edgeStyle=none;rounded=0;orthogonalLoop=1;jettySize=auto;html=1;entryX=0.25;entryY=0;entryDx=0;entryDy=0;endArrow=none;endFill=0;" edge="1" parent="1" source="KG3JMhEqKzMqYPLvNgxc-131" target="KG3JMhEqKzMqYPLvNgxc-3">
          <mxGeometry relative="1" as="geometry" />
        </mxCell>
        <mxCell id="KG3JMhEqKzMqYPLvNgxc-131" value="&lt;u&gt;Payment No&lt;/u&gt;" style="ellipse;whiteSpace=wrap;html=1;" vertex="1" parent="1">
          <mxGeometry x="865" y="70" width="75" height="35" as="geometry" />
        </mxCell>
      </root>
    </mxGraphModel>
  </diagram>
</mxfile>
